# Created by Kenney (www.kenney.nl)

mtllib ships.mtl

g mergedBlocks

v 0.15 0.2 -0.1
v 0.15 0.1 -0.1
v 0.15 0.2 0.1
v 0.15 0.1 0.1
v 0.15 0.5 -0.1
v 0.15 0.4 -0.1
v 0.15 0.5 0.1
v 0.15 0.4 0.1
v -0.05 0.4 -0.1
v -0.05 0.3 -0.1
v -0.05 0.4 0.1
v -0.05 0.3 0.1
v -0.15 0.3 -0.1
v -0.15 0.4 -0.1
v -0.15 0.3 0.1
v -0.15 0.4 0.1
v -0.15 -2.465529E-17 -0.1
v -0.15 0.1 -0.1
v -0.15 -2.465529E-17 0.1
v -0.15 0.1 0.1
v 0.05 4.712888E-15 0.1
v 0.05 4.712888E-15 -0.1
v 0.125 0.275 -0.1
v 0.125 0.275 0.1
v 0.05 0.3 -0.1
v 0.05 0.3 0.1
v 0.05 0.1 -0.1
v 0.05 0.1 0.1
v 0.05 0.2 -0.1
v 0.05 0.2 0.1
v -0.05 0.2 0.1
v -0.05 0.2 -0.1
v -0.125 0.225 -0.1
v -0.125 0.225 0.1
v -0.05 0.5 -0.1
v -0.05 0.5 0.1
v -0.125 0.475 -0.1
v -0.125 0.475 0.1
v 0.125 0.025 -0.1
v 0.125 0.025 0.1
v 0.45 -1.127987E-17 -0.1
v 0.45 0.2 -0.1
v 0.45 -1.127987E-17 0.1
v 0.45 0.2 0.1
v 0.45 0.3 -0.1
v 0.45 0.5 -0.1
v 0.45 0.3 0.1
v 0.45 0.5 0.1
v 0.55 0.5 -0.1
v 0.55 0.5 0.1
v 0.55 -1.127987E-17 0.1
v 0.55 -1.127987E-17 -0.1
v 0.35 0.2 -0.1
v 0.35 1.127987E-17 -0.1
v 0.35 0.2 0.1
v 0.35 1.127987E-17 0.1
v 0.35 0.3 -0.1
v 0.35 0.3 0.1
v 0.25 1.127987E-17 0.1
v 0.25 1.127987E-17 -0.1
v 0.35 0.5 -0.1
v 0.35 0.5 0.1
v 0.25 0.5 -0.1
v 0.25 0.5 0.1
v 0.75 0 0.1
v 0.75 0 -0.1
v 0.65 0 0.1
v 0.65 0 -0.1
v 0.75 0.5 -0.1
v 0.75 0.5 0.1
v 0.65 0.5 -0.1
v 0.65 0.5 0.1
v 1.05 0.5 -0.1
v 1.05 0.5 0.1
v 0.85 0.5 -0.1
v 0.85 0.5 0.1
v 1.125 0.225 0.1
v 1.125 0.225 -0.1
v 1.05 0.2 0.1
v 1.05 0.2 -0.1
v 1.05 0.3 -0.1
v 1.05 0.4 -0.1
v 1.05 0.3 0.1
v 1.05 0.4 0.1
v 0.85 0 -0.1
v 0.85 0 0.1
v 0.95 0.4 -0.1
v 0.95 0.3 -0.1
v 0.95 0.4 0.1
v 0.95 0.3 0.1
v 0.95 0.2 -0.1
v 0.95 0 -0.1
v 0.95 0.2 0.1
v 0.95 0 0.1
v 1.15 0.3 -0.1
v 1.15 0.3 0.1
v 1.125 0.475 -0.1
v 1.125 0.475 0.1
v 1.15 0.4 -0.1
v 1.15 0.4 0.1
v 1.51 0.2 -0.1
v 1.51 0.1 -0.1
v 1.51 0.2 0.1
v 1.51 0.1 0.1
v 1.51 0.5 -0.1
v 1.51 0.4 -0.1
v 1.51 0.5 0.1
v 1.51 0.4 0.1
v 1.31 0.4 -0.1
v 1.31 0.3 -0.1
v 1.31 0.4 0.1
v 1.31 0.3 0.1
v 1.21 0.3 -0.1
v 1.21 0.4 -0.1
v 1.21 0.3 0.1
v 1.21 0.4 0.1
v 1.21 -2.465529E-17 -0.1
v 1.21 0.1 -0.1
v 1.21 -2.465529E-17 0.1
v 1.21 0.1 0.1
v 1.41 4.712888E-15 0.1
v 1.41 4.712888E-15 -0.1
v 1.485 0.275 -0.1
v 1.485 0.275 0.1
v 1.41 0.3 -0.1
v 1.41 0.3 0.1
v 1.41 0.1 -0.1
v 1.41 0.1 0.1
v 1.41 0.2 -0.1
v 1.41 0.2 0.1
v 1.31 0.2 0.1
v 1.31 0.2 -0.1
v 1.235 0.225 -0.1
v 1.235 0.225 0.1
v 1.31 0.5 -0.1
v 1.31 0.5 0.1
v 1.235 0.475 -0.1
v 1.235 0.475 0.1
v 1.485 0.025 -0.1
v 1.485 0.025 0.1

vn 1 0 0
vn -1 0 0
vn 0 -1 0
vn 0.7071068 0.7071068 0
vn 0.9486833 0.3162278 0
vn 0.3162278 0.9486833 0
vn 0 1 0
vn -0.7071068 -0.7071068 0
vn -0.9486833 -0.3162278 0
vn -0.3162278 -0.9486833 0
vn -0.9486833 0.3162278 0
vn -0.7071068 0.7071068 0
vn -0.3162278 0.9486833 0
vn 0.9486833 -0.3162278 0
vn 0.7071068 -0.7071068 0
vn 0.3162278 -0.9486833 0
vn 0 0 -1
vn 0 0 1

vt 0.1 0.2
vt 0.1 0.1
vt -0.1 0.2
vt -0.1 0.1
vt 0.1 0.5
vt 0.1 0.4
vt -0.1 0.5
vt -0.1 0.4
vt 0.1 0.3
vt -0.1 0.3
vt -0.15 -0.1
vt -0.15 0.1
vt 0.05 -0.1
vt 0.05 0.1
vt -0.1 -2.465529E-17
vt 0.1 -2.465529E-17
vt -0.05 -0.1
vt -0.05 0.1
vt 0.15 -0.1
vt 0.15 0.1
vt 0.1 0.275
vt -0.1 0.275
vt -0.125 -0.1
vt -0.125 0.1
vt -0.1 0.225
vt 0.1 0.225
vt 0.125 -0.1
vt 0.125 0.1
vt -0.1 0.475
vt 0.1 0.475
vt 0.1 0.025
vt -0.1 0.025
vt -0.1 -1.127987E-17
vt 0.1 -1.127987E-17
vt -0.55 -0.1
vt -0.55 0.1
vt -0.45 -0.1
vt -0.45 0.1
vt 0.1 1.127987E-17
vt -0.1 1.127987E-17
vt -0.35 -0.1
vt -0.35 0.1
vt -0.25 -0.1
vt -0.25 0.1
vt -0.75 -0.1
vt -0.75 0.1
vt -0.65 -0.1
vt -0.65 0.1
vt 0.1 0
vt -0.1 0
vt -1.05 -0.1
vt -1.05 0.1
vt -0.85 -0.1
vt -0.85 0.1
vt -1.125 -0.1
vt -1.125 0.1
vt -0.95 -0.1
vt -0.95 0.1
vt -1.51 -0.1
vt -1.51 0.1
vt -1.31 -0.1
vt -1.31 0.1
vt -1.41 -0.1
vt -1.41 0.1
vt -1.21 -0.1
vt -1.21 0.1
vt -1.485 -0.1
vt -1.485 0.1
vt -1.235 -0.1
vt -1.235 0.1
vt 0.15 -2.465529E-17
vt -0.05 4.712888E-15
vt -0.125 0.025
vt -0.05 0.2
vt -0.15 0.2
vt 0.05 0.2
vt 0.125 0.225
vt -0.125 0.275
vt 0.15 0.3
vt 0.05 0.3
vt 0.05 0.4
vt 0.15 0.4
vt 0.125 0.475
vt -0.15 0.4
vt -0.15 0.5
vt 0.05 0.5
vt -0.05 0.3
vt -0.05 0.4
vt 0.15 0.5
vt -0.125 0.475
vt -0.05 0.5
vt 0.125 0.025
vt 0.15 0.2
vt -0.125 0.225
vt 0.125 0.275
vt -0.15 0.3
vt -0.15 -2.465529E-17
vt 0.05 4.712888E-15
vt -0.25 1.127987E-17
vt -0.35 1.127987E-17
vt -0.25 0.5
vt -0.35 0.2
vt -0.35 0.3
vt -0.35 0.5
vt -0.45 0.2
vt -0.45 -1.127987E-17
vt -0.55 -1.127987E-17
vt -0.55 0.5
vt -0.45 0.3
vt -0.45 0.5
vt 0.55 -1.127987E-17
vt 0.45 -1.127987E-17
vt 0.55 0.5
vt 0.45 0.2
vt 0.45 0.3
vt 0.45 0.5
vt 0.35 0.2
vt 0.35 1.127987E-17
vt 0.25 1.127987E-17
vt 0.25 0.5
vt 0.35 0.3
vt 0.35 0.5
vt 0.75 0
vt 0.65 0
vt 0.75 0.5
vt 0.65 0.5
vt -0.65 0
vt -0.75 0
vt -0.65 0.5
vt -0.75 0.5
vt -0.85 0
vt -0.95 0
vt -0.85 0.5
vt -0.95 0.2
vt -0.95 0.3
vt -1.125 0.225
vt -1.15 0.3
vt 1.05 0.3
vt 0.95 0.3
vt 1.15 0.3
vt -0.95 0.4
vt -1.125 0.475
vt -1.05 0.5
vt -1.15 0.4
vt -1.05 0.3
vt -1.05 0.4
vt 0.95 0.4
vt 1.05 0.4
vt 1.15 0.4
vt -1.05 0.2
vt 1.05 0.2
vt 0.95 0.2
vt 1.125 0.225
vt 1.125 0.475
vt 0.95 0
vt 0.85 0
vt 0.85 0.5
vt 1.05 0.5
vt -1.21 -2.465529E-17
vt -1.41 4.712888E-15
vt -1.485 0.025
vt -1.41 0.2
vt -1.51 0.2
vt -1.31 0.2
vt -1.235 0.225
vt -1.485 0.275
vt -1.21 0.3
vt -1.31 0.3
vt -1.31 0.4
vt -1.21 0.4
vt -1.235 0.475
vt -1.51 0.4
vt -1.51 0.5
vt -1.31 0.5
vt -1.41 0.3
vt 1.51 0.4
vt 1.31 0.4
vt 1.51 0.5
vt 1.21 0.4
vt 1.235 0.475
vt 1.31 0.5
vt 1.485 0.025
vt 1.41 0.1
vt 1.51 0.1
vt 1.41 0.2
vt 1.51 0.2
vt 1.31 0.2
vt 1.235 0.225
vt 1.485 0.275
vt 1.21 0.3
vt 1.31 0.3
vt 1.41 0.3
vt 1.21 -2.465529E-17
vt 1.21 0.1
vt 1.41 4.712888E-15

usemtl metalPurple(Clone)

f 3/3/1 2/2/1 1/1/1
f 2/2/1 3/3/1 4/4/1
f 7/7/1 6/6/1 5/5/1
f 6/6/1 7/7/1 8/8/1
f 11/8/1 10/9/1 9/6/1
f 10/9/1 11/8/1 12/10/1
f 15/9/2 14/8/2 13/10/2
f 14/8/2 15/9/2 16/6/2
f 11/13/3 6/12/3 8/11/3
f 6/12/3 11/13/3 9/14/3
f 19/16/2 18/4/2 17/15/2
f 18/4/2 19/16/2 20/2/2
f 19/19/3 22/18/3 21/17/3
f 22/18/3 19/19/3 17/20/3
f 24/22/4 1/1/5 23/21/4
f 1/1/5 24/22/4 3/3/5
f 25/17/6 24/24/4 23/23/4
f 24/24/4 25/17/6 26/18/6
f 18/19/7 28/18/7 27/17/7
f 28/18/7 18/19/7 20/20/7
f 28/2/2 29/3/2 27/4/2
f 29/3/2 28/2/2 30/1/2
f 31/13/3 29/18/3 30/17/3
f 29/18/3 31/13/3 32/14/3
f 34/26/8 13/10/9 33/25/8
f 13/10/9 34/26/8 15/9/9
f 10/13/7 26/18/7 25/17/7
f 26/18/7 10/13/7 12/14/7
f 35/13/7 7/12/7 5/11/7
f 7/12/7 35/13/7 36/14/7
f 34/27/8 32/14/10 31/13/10
f 32/14/10 34/27/8 33/28/8
f 16/6/11 37/29/12 14/8/11
f 37/29/12 16/6/11 38/30/12
f 37/27/12 36/14/13 35/13/13
f 36/14/13 37/27/12 38/28/12
f 4/4/14 39/31/15 2/2/14
f 39/31/15 4/4/14 40/32/15
f 21/17/16 39/24/15 40/23/15
f 39/24/15 21/17/16 22/18/16
f 43/34/2 42/3/2 41/33/2
f 42/3/2 43/34/2 44/1/2
f 47/9/2 46/7/2 45/10/2
f 46/7/2 47/9/2 48/5/2
f 46/37/7 50/36/7 49/35/7
f 50/36/7 46/37/7 48/38/7
f 43/37/3 52/36/3 51/35/3
f 52/36/3 43/37/3 41/38/3
f 55/3/1 54/39/1 53/1/1
f 54/39/1 55/3/1 56/40/1
f 57/41/7 47/38/7 45/37/7
f 47/38/7 57/41/7 58/42/7
f 59/43/3 54/42/3 56/41/3
f 54/42/3 59/43/3 60/44/3
f 55/41/3 42/38/3 44/37/3
f 42/38/3 55/41/3 53/42/3
f 50/7/1 52/34/1 49/5/1
f 52/34/1 50/7/1 51/33/1
f 63/43/7 62/42/7 61/41/7
f 62/42/7 63/43/7 64/44/7
f 59/39/2 63/7/2 60/40/2
f 63/7/2 59/39/2 64/5/2
f 62/7/1 57/9/1 61/5/1
f 57/9/1 62/7/1 58/10/1
f 67/47/3 66/46/3 65/45/3
f 66/46/3 67/47/3 68/48/3
f 70/7/1 66/49/1 69/5/1
f 66/49/1 70/7/1 65/50/1
f 67/49/2 71/7/2 68/50/2
f 71/7/2 67/49/2 72/5/2
f 71/47/7 70/46/7 69/45/7
f 70/46/7 71/47/7 72/48/7
f 75/53/7 74/52/7 73/51/7
f 74/52/7 75/53/7 76/54/7
f 79/51/16 78/56/15 77/55/15
f 78/56/15 79/51/16 80/52/16
f 83/9/2 82/8/2 81/10/2
f 82/8/2 83/9/2 84/6/2
f 86/49/2 75/7/2 85/50/2
f 75/7/2 86/49/2 76/5/2
f 89/8/1 88/9/1 87/6/1
f 88/9/1 89/8/1 90/10/1
f 89/57/3 82/52/3 84/51/3
f 82/52/3 89/57/3 87/58/3
f 93/3/1 92/49/1 91/1/1
f 92/49/1 93/3/1 94/50/1
f 96/10/14 78/26/15 95/9/14
f 78/26/15 96/10/14 77/25/15
f 73/51/6 98/56/4 97/55/4
f 98/56/4 73/51/6 74/52/6
f 93/57/3 80/52/3 79/51/3
f 80/52/3 93/57/3 91/58/3
f 98/29/4 99/6/5 97/30/4
f 99/6/5 98/29/4 100/8/5
f 88/57/7 83/52/7 81/51/7
f 83/52/7 88/57/7 90/58/7
f 100/8/1 95/9/1 99/6/1
f 95/9/1 100/8/1 96/10/1
f 86/53/3 92/58/3 94/57/3
f 92/58/3 86/53/3 85/54/3
f 103/3/1 102/2/1 101/1/1
f 102/2/1 103/3/1 104/4/1
f 107/7/1 106/6/1 105/5/1
f 106/6/1 107/7/1 108/8/1
f 111/8/1 110/9/1 109/6/1
f 110/9/1 111/8/1 112/10/1
f 115/9/2 114/8/2 113/10/2
f 114/8/2 115/9/2 116/6/2
f 111/61/3 106/60/3 108/59/3
f 106/60/3 111/61/3 109/62/3
f 119/16/2 118/4/2 117/15/2
f 118/4/2 119/16/2 120/2/2
f 119/65/3 122/64/3 121/63/3
f 122/64/3 119/65/3 117/66/3
f 124/22/4 101/1/5 123/21/4
f 101/1/5 124/22/4 103/3/5
f 125/63/6 124/68/4 123/67/4
f 124/68/4 125/63/6 126/64/6
f 118/65/7 128/64/7 127/63/7
f 128/64/7 118/65/7 120/66/7
f 128/2/2 129/3/2 127/4/2
f 129/3/2 128/2/2 130/1/2
f 131/61/3 129/64/3 130/63/3
f 129/64/3 131/61/3 132/62/3
f 134/26/8 113/10/9 133/25/8
f 113/10/9 134/26/8 115/9/9
f 110/61/7 126/64/7 125/63/7
f 126/64/7 110/61/7 112/62/7
f 135/61/7 107/60/7 105/59/7
f 107/60/7 135/61/7 136/62/7
f 134/69/8 132/62/10 131/61/10
f 132/62/10 134/69/8 133/70/8
f 116/6/11 137/29/12 114/8/11
f 137/29/12 116/6/11 138/30/12
f 137/69/12 136/62/13 135/61/13
f 136/62/13 137/69/12 138/70/12
f 104/4/14 139/31/15 102/2/14
f 139/31/15 104/4/14 140/32/15
f 121/63/16 139/68/15 140/67/15
f 139/68/15 121/63/16 122/64/16

usemtl _defaultMat(Clone)

f 18/20/17 22/72/17 17/71/17
f 22/72/17 18/20/17 39/73/17
f 39/73/17 18/20/17 27/18/17
f 39/73/17 27/18/17 2/12/17
f 2/12/17 27/18/17 29/74/17
f 2/12/17 29/74/17 1/75/17
f 33/77/17 29/74/17 32/76/17
f 29/74/17 33/77/17 1/75/17
f 1/75/17 33/77/17 23/78/17
f 23/78/17 33/77/17 13/79/17
f 23/78/17 13/79/17 10/80/17
f 10/80/17 13/79/17 9/81/17
f 9/81/17 13/79/17 14/82/17
f 9/81/17 14/82/17 37/83/17
f 9/81/17 37/83/17 6/84/17
f 6/84/17 37/83/17 5/85/17
f 5/85/17 37/83/17 35/86/17
f 25/87/17 23/78/17 10/80/17
f 7/89/18 11/88/18 8/82/18
f 11/88/18 7/89/18 16/84/18
f 16/84/18 7/89/18 38/90/18
f 38/90/18 7/89/18 36/91/18
f 4/20/18 28/14/18 40/92/18
f 28/14/18 4/20/18 30/76/18
f 30/76/18 4/20/18 3/93/18
f 30/76/18 3/93/18 31/74/18
f 31/74/18 3/93/18 34/94/18
f 34/94/18 3/93/18 24/95/18
f 34/94/18 24/95/18 15/96/18
f 15/96/18 24/95/18 12/87/18
f 12/87/18 24/95/18 26/80/18
f 15/96/18 12/87/18 11/88/18
f 15/96/18 11/88/18 16/84/18
f 21/98/18 20/12/18 19/97/18
f 20/12/18 21/98/18 40/92/18
f 20/12/18 40/92/18 28/14/18
f 63/101/17 54/100/17 60/99/17
f 54/100/17 63/101/17 53/102/17
f 53/102/17 63/101/17 57/103/17
f 57/103/17 63/101/17 61/104/17
f 53/102/17 57/103/17 42/105/17
f 42/105/17 52/107/17 41/106/17
f 52/107/17 42/105/17 49/108/17
f 49/108/17 42/105/17 45/109/17
f 45/109/17 42/105/17 57/103/17
f 49/108/17 45/109/17 46/110/17
f 50/113/18 43/112/18 51/111/18
f 43/112/18 50/113/18 44/114/18
f 44/114/18 50/113/18 47/115/18
f 47/115/18 50/113/18 48/116/18
f 44/114/18 47/115/18 55/117/18
f 55/117/18 59/119/18 56/118/18
f 59/119/18 55/117/18 64/120/18
f 64/120/18 55/117/18 58/121/18
f 58/121/18 55/117/18 47/115/18
f 64/120/18 58/121/18 62/122/18
f 70/125/18 67/124/18 65/123/18
f 67/124/18 70/125/18 72/126/18
f 71/129/17 66/128/17 68/127/17
f 66/128/17 71/129/17 69/130/17
f 75/133/17 92/132/17 85/131/17
f 92/132/17 75/133/17 91/134/17
f 91/134/17 75/133/17 88/135/17
f 91/134/17 88/135/17 78/136/17
f 78/136/17 88/135/17 95/137/17
f 95/140/17 88/139/17 81/138/17
f 88/135/17 75/133/17 87/141/17
f 87/141/17 75/133/17 97/142/17
f 97/142/17 75/133/17 73/143/17
f 81/145/17 99/144/17 95/137/17
f 99/144/17 87/141/17 97/142/17
f 99/144/17 81/145/17 82/146/17
f 99/149/17 82/148/17 87/147/17
f 78/136/17 80/150/17 91/134/17
f 77/153/18 93/152/18 79/151/18
f 100/149/18 83/138/18 96/140/18
f 83/138/18 100/149/18 84/148/18
f 84/148/18 100/149/18 98/154/18
f 84/148/18 98/154/18 89/147/18
f 93/152/18 86/156/18 94/155/18
f 86/156/18 93/152/18 76/157/18
f 76/157/18 93/152/18 90/139/18
f 90/139/18 93/152/18 77/153/18
f 90/139/18 77/153/18 96/140/18
f 90/139/18 96/140/18 83/138/18
f 76/157/18 90/139/18 89/147/18
f 76/157/18 89/147/18 98/154/18
f 76/157/18 98/154/18 74/158/18
f 118/66/17 122/160/17 117/159/17
f 122/160/17 118/66/17 139/161/17
f 139/161/17 118/66/17 127/64/17
f 139/161/17 127/64/17 102/60/17
f 102/60/17 127/64/17 129/162/17
f 102/60/17 129/162/17 101/163/17
f 133/165/17 129/162/17 132/164/17
f 129/162/17 133/165/17 101/163/17
f 101/163/17 133/165/17 123/166/17
f 123/166/17 133/165/17 113/167/17
f 123/166/17 113/167/17 110/168/17
f 110/168/17 113/167/17 109/169/17
f 109/169/17 113/167/17 114/170/17
f 109/169/17 114/170/17 137/171/17
f 109/169/17 137/171/17 106/172/17
f 106/172/17 137/171/17 105/173/17
f 105/173/17 137/171/17 135/174/17
f 125/175/17 123/166/17 110/168/17
f 107/178/18 111/177/18 108/176/18
f 111/177/18 107/178/18 116/179/18
f 116/179/18 107/178/18 138/180/18
f 138/180/18 107/178/18 136/181/18
f 104/184/18 128/183/18 140/182/18
f 128/183/18 104/184/18 130/185/18
f 130/185/18 104/184/18 103/186/18
f 130/185/18 103/186/18 131/187/18
f 131/187/18 103/186/18 134/188/18
f 134/188/18 103/186/18 124/189/18
f 134/188/18 124/189/18 115/190/18
f 115/190/18 124/189/18 112/191/18
f 112/191/18 124/189/18 126/192/18
f 115/190/18 112/191/18 111/177/18
f 115/190/18 111/177/18 116/179/18
f 121/195/18 120/194/18 119/193/18
f 120/194/18 121/195/18 140/182/18
f 120/194/18 140/182/18 128/183/18

